# xmcd
#
# Track frame offsets: 
#        150
#        15304
#        33604
#        48272
#        70414
#        84048
#        102013
#        124134
#
# Disc length: 1891 seconds
#
# Revision: 0
# Processed by: cddbd v1.5.2PL0 Copyright (c) Steve Scherf et al.
# Submitted via: ExactAudioCopy v1.0b1
#
DISCID=58076108
DTITLE=The New Black Seven - Hangovers and Heartbreak
DYEAR=2013
DGENRE=Blues Rock
TTITLE0=Crazy All Over Me
TTITLE1=That Don't Sound Like Country
TTITLE2=Closing Time
TTITLE3=Fly Me To Freedom
TTITLE4=Outlaw
TTITLE5=Can't Go Home
TTITLE6=Fly Me To Freedom (Acoustic)
TTITLE7=Can't Go Home (Acoustic)
EXTD=
EXTT0=
EXTT1=
EXTT2=
EXTT3=
EXTT4=
EXTT5=
EXTT6=
EXTT7=
PLAYORDER=
